  0
SECTION
  2
BLOCKS
  0
ENDSEC
  0
SECTION
  2
ENTITIES
  0
LINE
  8
0
 10
-146
 11
-93
 20
-54.271
 21
37.528
  0
LINE
  8
0
 10
-93
 11
-54.029
 20
37.528
 21
15.028
  0
LINE
  8
0
 10
-54.029
 11
-40.029
 20
15.028
 21
39.276
  0
LINE
  8
0
 10
-40.029
 11
-79
 20
39.276
 21
61.776
  0
LINE
  8
0
 10
-79
 11
-26
 20
61.776
 21
153.575
  0
LINE
  8
0
 10
-26
 11
-9
 20
153.575
 21
153.575
  0
LINE
  8
0
 10
-9
 11
-9
 20
153.575
 21
110.575
  0
LINE
  8
0
 10
-9
 11
9
 20
110.575
 21
110.575
  0
LINE
  8
0
 10
9
 11
9
 20
110.575
 21
153.575
  0
LINE
  8
0
 10
9
 11
26
 20
153.575
 21
153.575
  0
LINE
  8
0
 10
26
 11
79
 20
153.575
 21
61.776
  0
LINE
  8
0
 10
79
 11
40.029
 20
61.776
 21
39.276
  0
LINE
  8
0
 10
40.029
 11
54.029
 20
39.276
 21
15.028
  0
LINE
  8
0
 10
54.029
 11
93
 20
15.028
 21
37.528
  0
LINE
  8
0
 10
93
 11
146
 20
37.528
 21
-54.271
  0
LINE
  8
0
 10
146
 11
137.5
 20
-54.271
 21
-68.993
  0
LINE
  8
0
 10
137.5
 11
100.261
 20
-68.993
 21
-47.493
  0
LINE
  8
0
 10
100.261
 11
91.261
 20
-47.493
 21
-63.082
  0
LINE
  8
0
 10
91.261
 11
128.5
 20
-63.082
 21
-84.582
  0
LINE
  8
0
 10
128.5
 11
120
 20
-84.582
 21
-99.304
  0
LINE
  8
0
 10
120
 11
14
 20
-99.304
 21
-99.304
  0
LINE
  8
0
 10
14
 11
14
 20
-99.304
 21
-54.304
  0
LINE
  8
0
 10
14
 11
-14
 20
-54.304
 21
-54.304
  0
LINE
  8
0
 10
-14
 11
-14
 20
-54.304
 21
-99.304
  0
LINE
  8
0
 10
-14
 11
-120
 20
-99.304
 21
-99.304
  0
LINE
  8
0
 10
-120
 11
-128.5
 20
-99.304
 21
-84.582
  0
LINE
  8
0
 10
-128.5
 11
-91.261
 20
-84.582
 21
-63.082
  0
LINE
  8
0
 10
-91.261
 11
-100.261
 20
-63.082
 21
-47.493
  0
LINE
  8
0
 10
-100.261
 11
-137.5
 20
-47.493
 21
-68.993
  0
LINE
  8
0
 10
-137.5
 11
-146
 20
-68.993
 21
-54.271
  0
ENDSEC
  0
SECTION
  2
OBJECTS
  0
DICTIONARY
  0
ENDSEC
  0
EOF
