  0
SECTION
  2
BLOCKS
  0
ENDSEC
  0
SECTION
  2
ENTITIES
  0
LINE
  8
0
 10
-139.5
 11
-93
 20
-43.013
 21
37.528
  0
LINE
  8
0
 10
-93
 11
-54.029
 20
37.528
 21
15.028
  0
LINE
  8
0
 10
-54.029
 11
-40.029
 20
15.028
 21
39.276
  0
LINE
  8
0
 10
-40.029
 11
-79
 20
39.276
 21
61.776
  0
LINE
  8
0
 10
-79
 11
-32.5
 20
61.776
 21
142.317
  0
LINE
  8
0
 10
-32.5
 11
-27.52
 20
142.317
 21
139.442
  0
LINE
  8
0
 10
-27.52
 11
-33.02
 20
139.442
 21
129.915
  0
LINE
  8
0
 10
-33.02
 11
-29.989
 20
129.915
 21
128.165
  0
LINE
  8
0
 10
-29.989
 11
-24.489
 20
128.165
 21
137.692
  0
LINE
  8
0
 10
-24.489
 11
-20.638
 20
137.692
 21
135.469
  0
LINE
  8
0
 10
-20.638
 11
-14
 20
135.469
 21
110.575
  0
LINE
  8
0
 10
-14
 11
14
 20
110.575
 21
110.575
  0
LINE
  8
0
 10
14
 11
20.638
 20
110.575
 21
135.469
  0
LINE
  8
0
 10
20.638
 11
24.489
 20
135.469
 21
137.692
  0
LINE
  8
0
 10
24.489
 11
29.989
 20
137.692
 21
128.165
  0
LINE
  8
0
 10
29.989
 11
33.02
 20
128.165
 21
129.915
  0
LINE
  8
0
 10
33.02
 11
27.52
 20
129.915
 21
139.442
  0
LINE
  8
0
 10
27.52
 11
32.5
 20
139.442
 21
142.317
  0
LINE
  8
0
 10
32.5
 11
79
 20
142.317
 21
61.776
  0
LINE
  8
0
 10
79
 11
40.029
 20
61.776
 21
39.276
  0
LINE
  8
0
 10
40.029
 11
54.029
 20
39.276
 21
15.028
  0
LINE
  8
0
 10
54.029
 11
93
 20
15.028
 21
37.528
  0
LINE
  8
0
 10
93
 11
139.5
 20
37.528
 21
-43.013
  0
LINE
  8
0
 10
139.5
 11
134.52
 20
-43.013
 21
-45.888
  0
LINE
  8
0
 10
134.52
 11
129.02
 20
-45.888
 21
-36.361
  0
LINE
  8
0
 10
129.02
 11
125.989
 20
-36.361
 21
-38.111
  0
LINE
  8
0
 10
125.989
 11
131.489
 20
-38.111
 21
-47.638
  0
LINE
  8
0
 10
131.489
 11
127.638
 20
-47.638
 21
-49.861
  0
LINE
  8
0
 10
127.638
 11
102.761
 20
-49.861
 21
-43.163
  0
LINE
  8
0
 10
102.761
 11
88.761
 20
-43.163
 21
-67.412
  0
LINE
  8
0
 10
88.761
 11
107
 20
-67.412
 21
-85.607
  0
LINE
  8
0
 10
107
 11
107
 20
-85.607
 21
-90.054
  0
LINE
  8
0
 10
107
 11
96
 20
-90.054
 21
-90.054
  0
LINE
  8
0
 10
96
 11
96
 20
-90.054
 21
-93.554
  0
LINE
  8
0
 10
96
 11
107
 20
-93.554
 21
-93.554
  0
LINE
  8
0
 10
107
 11
107
 20
-93.554
 21
-99.304
  0
LINE
  8
0
 10
107
 11
78
 20
-99.304
 21
-99.304
  0
LINE
  8
0
 10
78
 11
78
 20
-99.304
 21
-84.304
  0
LINE
  8
0
 10
78
 11
68
 20
-84.304
 21
-84.304
  0
LINE
  8
0
 10
68
 11
68
 20
-84.304
 21
-99.304
  0
LINE
  8
0
 10
68
 11
14
 20
-99.304
 21
-99.304
  0
LINE
  8
0
 10
14
 11
14
 20
-99.304
 21
-54.304
  0
LINE
  8
0
 10
14
 11
-14
 20
-54.304
 21
-54.304
  0
LINE
  8
0
 10
-14
 11
-14
 20
-54.304
 21
-99.304
  0
LINE
  8
0
 10
-14
 11
-58
 20
-99.304
 21
-99.304
  0
LINE
  8
0
 10
-58
 11
-58
 20
-99.304
 21
-84.304
  0
LINE
  8
0
 10
-58
 11
-68
 20
-84.304
 21
-84.304
  0
LINE
  8
0
 10
-68
 11
-68
 20
-84.304
 21
-99.304
  0
LINE
  8
0
 10
-68
 11
-107
 20
-99.304
 21
-99.304
  0
LINE
  8
0
 10
-107
 11
-107
 20
-99.304
 21
-93.554
  0
LINE
  8
0
 10
-107
 11
-96
 20
-93.554
 21
-93.554
  0
LINE
  8
0
 10
-96
 11
-96
 20
-93.554
 21
-90.054
  0
LINE
  8
0
 10
-96
 11
-107
 20
-90.054
 21
-90.054
  0
LINE
  8
0
 10
-107
 11
-107
 20
-90.054
 21
-85.607
  0
LINE
  8
0
 10
-107
 11
-88.761
 20
-85.607
 21
-67.412
  0
LINE
  8
0
 10
-88.761
 11
-102.761
 20
-67.412
 21
-43.163
  0
LINE
  8
0
 10
-102.761
 11
-127.638
 20
-43.163
 21
-49.861
  0
LINE
  8
0
 10
-127.638
 11
-131.489
 20
-49.861
 21
-47.638
  0
LINE
  8
0
 10
-131.489
 11
-125.989
 20
-47.638
 21
-38.111
  0
LINE
  8
0
 10
-125.989
 11
-129.02
 20
-38.111
 21
-36.361
  0
LINE
  8
0
 10
-129.02
 11
-134.52
 20
-36.361
 21
-45.888
  0
LINE
  8
0
 10
-134.52
 11
-139.5
 20
-45.888
 21
-43.013
  0
ENDSEC
  0
SECTION
  2
OBJECTS
  0
DICTIONARY
  0
ENDSEC
  0
EOF
