<?xml version="1.0" encoding="utf-8"?>
<!-- Generator: Adobe Illustrator 17.1.0, SVG Export Plug-In . SVG Version: 6.00 Build 0)  -->
<!DOCTYPE svg PUBLIC "-//W3C//DTD SVG 1.1//EN" "http://www.w3.org/Graphics/SVG/1.1/DTD/svg11.dtd">
<svg version="1.1" id="Layer_1" xmlns="http://www.w3.org/2000/svg" xmlns:xlink="http://www.w3.org/1999/xlink" x="0px" y="0px"
	 viewBox="0 0 540.549 520.776" enable-background="new 0 0 540.549 520.776" xml:space="preserve">
<g id="Logo_1_">
	<path d="M328.833,218.677c0,0-297.475,17.197-328.037,247.09c0,0-25.634-240.105,213.934-308.992c0,0-44.66-0.906-66.626,12.555
		c0,0,21.684-131.448,121.609-169.33c0,0-45.819,25.481-48.737,85.724c0,0,39.669,8.952,70.43,35.832
		S328.833,218.677,328.833,218.677z"/>
	<path d="M319.681,407.633c0,0,133.844-266.22-49.968-407.633c0,0,220.754,97.853,160.628,339.768c0,0,23.114-38.224,22.44-63.977
		c0,0,102.996,84.503,85.84,189.981c0,0,0.842-52.42-49.87-85.07c0,0-27.587,29.879-66.247,43.078S319.681,407.633,319.681,407.633z
		"/>
	<path d="M160.617,305.229c0,0,163.631,249.023,378.005,160.543c0,0-195.12,142.252-374.562-30.776c0,0,21.545,39.129,44.186,51.422
		c0,0-124.68,46.945-207.449-20.651c0,0,44.976,26.94,98.608-0.654c0,0-12.082-38.83-4.183-78.91S160.617,305.229,160.617,305.229z"
		/>
	<circle cx="269.71" cy="310.513" r="26.304"/>
</g>
</svg>
