<?xml version="1.0" encoding="utf-8"?>
<!-- Generator: Adobe Illustrator 17.1.0, SVG Export Plug-In . SVG Version: 6.00 Build 0)  -->
<!DOCTYPE svg PUBLIC "-//W3C//DTD SVG 1.1//EN" "http://www.w3.org/Graphics/SVG/1.1/DTD/svg11.dtd">
<svg version="1.1" id="Layer_1" xmlns="http://www.w3.org/2000/svg" xmlns:xlink="http://www.w3.org/1999/xlink" x="0px" y="0px"
	 viewBox="0 0 1148.976 260.388" enable-background="new 0 0 1148.976 260.388" xml:space="preserve">
<g id="Text">
	<path d="M509.546,102.84c3.26,0.16,6.96-0.85,9.76,1.31c-0.2,19.78,0.01,39.56-0.11,59.33c0.14,1.74-0.36,3.82,0.96,5.24
		c3.51,0.44,7.06,0.19,10.59,0.24c0.4,0.41,1.2,1.23,1.6,1.63c0,2.63,0,5.26,0.01,7.89c-0.39,0.42-1.17,1.26-1.56,1.69
		c-4.58-0.12-9.28,0.55-13.75-0.65c-5.46-1.74-9.3-7.28-9.06-13.01c-0.02-20.66-0.01-41.33,0-61.99
		C508.376,104.1,509.156,103.26,509.546,102.84z"/>
	<path d="M553.006,104.2c2.78-2.26,6.53-1.18,9.81-1.35c0.38,0.42,1.15,1.27,1.53,1.7c0.01,5.59,0,11.18,0.01,16.77
		c7.51,0.15,15.06-0.29,22.56,0.19c2.88,2.13,1.05,6.42,1.68,9.49c-1.05,0.66-2.04,1.67-3.39,1.54c-6.95,0.14-13.91-0.03-20.85,0.04
		c0.06,11.33-0.11,22.66,0.06,33.99c-0.15,1.6,1.19,2.58,2.71,2.33c6.54,0.18,13.08-0.03,19.63,0.05c0.43,0.41,1.28,1.21,1.71,1.62
		c0.01,2.63,0.01,5.26,0.01,7.9c-0.4,0.43-1.22,1.28-1.63,1.71c-6.9-0.02-13.81,0.1-20.7-0.02c-4.78,0.03-9.39-2.83-11.55-7.08
		c-2.05-3.83-1.4-8.33-1.5-12.49C553.056,141.79,553.216,122.99,553.006,104.2z"/>
	<path d="M848.376,104.47c3.54-2.91,8.48-1.01,12.67-1.52c2,3.75,1.18,8.24,0.96,12.31c-3.03,2.91-8.01,0.85-11.82,1.42
		c-0.42-0.38-1.26-1.14-1.68-1.51C848.476,111.6,848.506,108.03,848.376,104.47z"/>
	<path d="M966.006,104.24c2.58-2.18,6.13-1.31,9.24-1.47c1.62,0.02,4.18-0.09,4.48,2.05c0.37,5.49-0.01,11,0.14,16.51
		c7.07,0,14.16-0.05,21.24,0.03c0.39,0.39,1.18,1.17,1.57,1.56c-0.42,4.03,1.43,8.9-1.53,12.25c-7.1-0.21-14.2-0.06-21.29-0.09
		c0.01,10.45-0.04,20.9,0.03,31.36c7.03,0.02,14.07-0.01,21.11,0.02c0.42,0.39,1.26,1.16,1.68,1.55c-0.38,4.06,1.35,8.83-1.43,12.29
		c-7.34-0.29-14.68,0.07-22.01-0.17c-6.27-0.28-11.92-5.34-12.87-11.53C965.686,147.17,966.416,125.68,966.006,104.24z"/>
	<g>
		<path d="M333.536,107.85c19.21-0.04,38.42-0.04,57.62-0.01c6.98-0.32,13.45,5.68,13.4,12.72c0.14,14.62-0.02,29.26,0.08,43.89
			c0.02,3.24-0.12,6.71-1.98,9.51c-2.35,3.94-6.88,6.29-11.44,6.22c-19.23,0.02-38.46,0.04-57.69-0.01
			c-0.39-0.42-1.16-1.26-1.54-1.68c-0.01-22.99-0.01-45.97,0-68.96C332.376,109.11,333.146,108.27,333.536,107.85z M344.576,119.15
			c-1.848-0.036-1.285,0.339-1.5,4.31c0.1,14.36-0.08,28.74,0.09,43.1c0,2.325,0.417,2.492,2.93,2.46
			c15,0.01,28.154,0.093,43.154-0.017c1.653,0.103,4.166-1.576,4.238-5.076c0.02-13.67-0.062-25.777,0.028-39.447
			c-0.013-0.223-0.019-0.447-0.023-0.672c-0.043-2.657-2.186-4.729-4.842-4.822c-0.165-0.006-0.327-0.017-0.485-0.036
			C373.636,119.15,359.086,118.71,344.576,119.15z"/>
	</g>
	<g>
		<path d="M693.516,107.85c18.89-0.05,37.78-0.04,56.67-0.01c7.36-0.2,14.08,6.22,14.12,13.61c0.11,6.68,0.07,13.37,0.02,20.05
			c0.09,6.14-4.34,11.92-10.24,13.53c-2.57,0.64-5.24,0.55-7.86,0.57c-13.5-0.06-27-0.01-40.5-0.03c-0.04,7,0.04,14.01,0.01,21.01
			c0.19,1.46-0.79,2.57-1.51,3.72c-3.56-0.14-7.12-0.11-10.68-0.13c-0.39-0.41-1.17-1.24-1.56-1.66c-0.02-22.99-0.01-45.98,0-68.97
			C692.366,109.12,693.136,108.27,693.516,107.85z M705.766,121.58c-0.07,6.74-0.04,13.48-0.02,20.22c14.94,0.04,29.89,0.04,44.84,0
			c0.02-6.74,0.05-13.48-0.02-20.22C735.636,121.57,720.696,121.57,705.766,121.58z"/>
	</g>
	<g>
		<path d="M427.506,134.43c-0.14-6.79,5.78-12.98,12.6-13.05c11.33-0.13,22.67-0.07,34-0.03c6.67-0.14,12.89,5.49,13.15,12.2
			c0.26,6.97,0.01,13.96,0.09,20.94c-0.39,0.42-1.17,1.26-1.55,1.68c-15.69,0.06-31.37,0.01-47.05,0.03
			c0.04,3.75-0.27,7.53,0.16,11.28c0.41,1.91,2.82,1.28,4.24,1.5c14.2-0.05,28.4-0.04,42.6-0.01c0.4,0.41,1.2,1.23,1.6,1.64
			c0,2.63,0,5.27,0,7.92c-0.4,0.41-1.18,1.23-1.58,1.65c-15.19,0.01-30.37,0.07-45.56-0.02c-6.69-0.06-12.58-5.97-12.68-12.64
			C427.426,156.49,427.476,145.46,427.506,134.43z M438.966,133.5c-0.49,3.79-0.19,7.63-0.22,11.45c12.4,0,24.81,0,37.22-0.01
			c-0.06-3.72,0.27-7.47-0.18-11.18c-0.6-1.5-2.37-1.04-3.62-1.19c-9.66-0.02-19.33,0.03-28.99-0.02
			C441.736,132.62,440.086,132.37,438.966,133.5z"/>
	</g>
	<g>
		<path d="M608.496,122.88c0.42-0.39,1.27-1.16,1.69-1.55c15.32,0.04,30.64-0.11,45.96,0.06c6.81,0.08,12.81,6.22,12.67,13.04
			c0.09,14.04,0.01,28.08,0.04,42.12c0.25,1.7-0.72,3.78-2.7,3.6c-14.67,0.11-29.35,0.02-44.02,0.04
			c-6.73,0.31-13.1-5.18-13.56-11.95c-0.32-7.27,0.09-14.56-0.19-21.83c1.14-0.73,2.27-1.65,3.73-1.46
			c15.11-0.01,30.23,0.01,45.35,0c-0.04-3.82,0.24-7.65-0.2-11.44c-1.07-1.13-2.7-0.89-4.08-0.96c-14.34,0.04-28.67,0.03-43,0.01
			c-0.42-0.36-1.24-1.09-1.66-1.45C608.476,128.36,608.476,125.62,608.496,122.88z M619.746,156.2c0.04,3.74-0.27,7.51,0.16,11.25
			c0.45,1.91,2.83,1.33,4.27,1.52c11.1-0.04,22.2-0.01,33.3-0.03c0-4.25,0-8.49,0-12.74
			C644.896,156.19,632.316,156.19,619.746,156.2z"/>
	</g>
	<path d="M783.496,135.53c-0.17-6.67,5.01-12.97,11.63-13.96c11.23-0.45,22.55-0.36,33.79-0.05c0.34,0.31,1.01,0.95,1.35,1.26
		c0.46,3.52,0.16,7.08,0.2,10.62c-0.43,0.42-1.28,1.25-1.7,1.67c-10.51,0.02-21.02-0.04-31.53,0.04
		c0.04,14.55-0.14,29.11,0.09,43.66c-3.13,2.45-7.4,1.24-11.07,1.38c-2,0.23-3.07-1.85-2.78-3.58
		C783.496,162.89,783.456,149.21,783.496,135.53z"/>
	<path d="M848.486,122.81c0.41-0.4,1.25-1.22,1.66-1.63c3.58,0.05,7.19-0.31,10.75,0.24c0.98,0.75,1.41,1.75,1.31,3
		c0.12,18.11-0.13,36.24,0.13,54.36c-3.15,2.44-7.44,1.23-11.11,1.37c-2.01,0.2-3.03-1.86-2.75-3.59
		C848.476,158.64,848.476,140.73,848.486,122.81z"/>
	<path d="M883.136,124.43c-0.35-1.75,1.24-3.3,2.99-3.08c14.31-0.06,28.64-0.04,42.96,0c7.57-0.24,14.35,6.56,14.12,14.12
		c0.06,14.34,0.01,28.68,0.01,43.02c-0.36,0.41-1.08,1.23-1.45,1.64c-3.45,0.02-6.91,0.29-10.34-0.07
		c-1.66-0.24-2.07-2.12-1.95-3.51c-0.02-13.82,0.04-27.64-0.02-41.46c-10.86-0.03-21.72-0.03-32.58,0
		c-0.1,14.12,0.07,28.25-0.07,42.37c0.15,1.49-1.19,2.81-2.66,2.7c-3.19,0.17-6.38,0.02-9.56-0.02c-0.37-0.42-1.11-1.24-1.47-1.66
		C883.126,160.47,883.056,142.45,883.136,124.43z"/>
	<g>
		<path d="M1029.466,122.73c2.98-1.55,6.44-1.42,9.71-1.44c9.32,0.09,18.64-0.04,27.96,0.05c6.48-0.17,12.63,4.71,13.87,11.08
			c0.77,7,0.16,14.08,0.36,21.12c0.35,1.95-0.84,4.45-3.15,4c-14.33,0.09-28.66,0-42.99,0.03c-0.01,2.95,0,5.9,0.02,8.86
			c13.99,0.05,27.98,0,41.97,0.01c1.64-0.22,3.07,0.55,4.27,1.62c-0.18,3.47-0.15,6.95-0.14,10.43c-0.39,0.42-1.16,1.26-1.55,1.68
			c-14.55,0.05-29.1,0.02-43.65,0.02c-5.36,0.22-10.66-2.81-13.08-7.61c-1.72-3.08-1.63-6.71-1.61-10.13
			c0.08-8.98-0.04-17.97,0.04-26.95C1021.416,130.17,1024.626,124.98,1029.466,122.73z M1035.236,135.1
			c-0.02,2.9-0.02,5.81-0.01,8.72c10.79,0.01,21.59,0.01,32.38,0c-0.01-2.91-0.01-5.82-0.02-8.73
			C1056.806,135.06,1046.016,135.04,1035.236,135.1z"/>
	</g>
	<path d="M1101.996,135.53c-0.2-6.85,5.32-13.3,12.15-14.02c11-0.45,22.03-0.06,33.05-0.18c0.43,0.37,1.3,1.12,1.73,1.49
		c0.05,3.5,0.05,7.01,0.05,10.53c-0.39,0.42-1.18,1.27-1.58,1.69c-10.55,0.08-21.1-0.02-31.65,0.05c-0.06,13.8,0,27.6-0.01,41.39
		c0.2,1.49-0.77,2.65-1.52,3.82c-3.57-0.14-7.13-0.11-10.68-0.13c-0.39-0.42-1.17-1.26-1.55-1.68
		C1101.996,164.17,1101.936,149.85,1101.996,135.53z"/>
</g>
<g id="Logo">
	<path d="M164.417,109.339c0,0-148.738,8.599-164.018,123.545c0,0-12.817-120.053,106.967-154.496c0,0-22.33-0.453-33.313,6.277
		c0,0,10.842-65.724,60.804-84.665c0,0-22.909,12.74-24.369,42.862c0,0,19.835,4.476,35.215,17.916S164.417,109.339,164.417,109.339
		z"/>
	<path d="M159.841,203.817c0,0,66.922-133.11-24.984-203.817c0,0,110.377,48.926,80.314,169.884c0,0,11.557-19.112,11.22-31.989
		c0,0,51.498,42.252,42.92,94.991c0,0,0.421-26.21-24.935-42.535c0,0-13.793,14.939-33.123,21.539S159.841,203.817,159.841,203.817z
		"/>
	<path d="M80.308,152.615c0,0,81.816,124.511,189.002,80.271c0,0-97.56,71.126-187.281-15.388c0,0,10.773,19.565,22.093,25.711
		c0,0-62.34,23.473-103.724-10.326c0,0,22.488,13.47,49.304-0.327c0,0-6.041-19.415-2.092-39.455S80.308,152.615,80.308,152.615z"/>
	<circle cx="134.855" cy="155.257" r="13.152"/>
</g>
</svg>
